{"glyphs":{"0":{"ha":833,"x_min":69,"x_max":764,"o":"m 764 179 l 585 0 l 249 0 l 69 179 l 69 932 l 249 1111 l 585 1111 l 764 932 l 764 179 m 736 192 l 736 920 l 572 1083 l 261 1083 l 97 920 l 97 192 l 261 28 l 572 28 l 736 192 m 694 208 l 555 69 l 278 69 l 139 208 l 139 903 l 278 1042 l 555 1042 l 694 903 l 694 208 m 486 278 l 486 833 l 347 833 l 347 278 l 486 278 z "},"1":{"ha":486,"x_min":69,"x_max":416,"o":"m 416 0 l 69 0 l 69 1111 l 416 1111 l 416 0 m 389 28 l 389 1083 l 97 1083 l 97 28 l 389 28 m 347 69 l 139 69 l 139 1042 l 347 1042 l 347 69 z "},"2":{"ha":833,"x_min":69,"x_max":764,"o":"m 764 0 l 69 0 l 69 550 l 214 694 l 69 694 l 69 932 l 249 1111 l 585 1111 l 764 932 l 764 561 l 585 382 l 416 382 l 416 347 l 764 347 l 764 0 m 736 28 l 736 319 l 389 319 l 389 410 l 572 410 l 736 574 l 736 920 l 572 1083 l 261 1083 l 97 920 l 97 722 l 282 722 l 97 538 l 97 28 l 736 28 m 694 69 l 139 69 l 139 521 l 278 660 l 486 660 l 486 833 l 347 833 l 347 764 l 139 764 l 139 903 l 278 1042 l 555 1042 l 694 903 l 694 590 l 555 452 l 347 452 l 347 278 l 694 278 l 694 69 z "},"3":{"ha":847,"x_min":69,"x_max":778,"o":"m 778 179 l 599 0 l 262 0 l 69 193 l 69 416 l 292 416 l 292 694 l 83 694 l 83 932 l 262 1111 l 599 1111 l 778 932 l 778 624 l 710 555 l 778 488 l 778 179 m 750 192 l 750 475 l 669 555 l 750 636 l 750 920 l 586 1083 l 275 1083 l 111 920 l 111 722 l 319 722 l 319 389 l 97 389 l 97 205 l 275 28 l 586 28 l 750 192 m 708 208 l 570 69 l 292 69 l 139 222 l 139 347 l 361 347 l 361 278 l 500 278 l 500 452 l 361 452 l 361 660 l 500 660 l 500 833 l 361 833 l 361 764 l 153 764 l 153 903 l 292 1042 l 570 1042 l 708 903 l 708 653 l 611 555 l 708 458 l 708 208 z "},"4":{"ha":833,"x_min":69,"x_max":764,"o":"m 764 0 l 416 0 l 416 382 l 69 382 l 69 1111 l 764 1111 l 764 0 m 736 28 l 736 1083 l 97 1083 l 97 410 l 444 410 l 444 28 l 736 28 m 694 69 l 486 69 l 486 452 l 139 452 l 139 1042 l 347 1042 l 347 660 l 486 660 l 486 1042 l 694 1042 l 694 69 z "},"5":{"ha":833,"x_min":69,"x_max":764,"o":"m 764 179 l 585 0 l 249 0 l 69 179 l 69 416 l 214 416 l 69 561 l 69 1111 l 764 1111 l 764 764 l 416 764 l 416 729 l 585 729 l 764 550 l 764 179 m 736 192 l 736 538 l 572 701 l 389 701 l 389 791 l 736 791 l 736 1083 l 97 1083 l 97 574 l 282 389 l 97 389 l 97 192 l 261 28 l 572 28 l 736 192 m 694 208 l 555 69 l 278 69 l 139 208 l 139 347 l 347 347 l 347 278 l 486 278 l 486 452 l 278 452 l 139 590 l 139 1042 l 694 1042 l 694 833 l 347 833 l 347 660 l 555 660 l 694 521 l 694 208 z "},"6":{"ha":833,"x_min":69,"x_max":764,"o":"m 764 179 l 585 0 l 249 0 l 69 179 l 69 932 l 249 1111 l 585 1111 l 764 932 l 764 694 l 619 694 l 764 550 l 764 179 m 736 192 l 736 538 l 551 722 l 736 722 l 736 920 l 572 1083 l 261 1083 l 97 920 l 97 192 l 261 28 l 572 28 l 736 192 m 694 208 l 555 69 l 278 69 l 139 208 l 139 903 l 278 1042 l 555 1042 l 694 903 l 694 764 l 486 764 l 486 833 l 347 833 l 347 660 l 555 660 l 694 521 l 694 208 m 486 278 l 486 452 l 347 452 l 347 278 l 486 278 z "},"7":{"ha":868,"x_min":69,"x_max":833,"o":"m 833 819 l 476 0 l 89 0 l 392 694 l 69 694 l 69 1111 l 833 1111 l 833 819 m 806 825 l 806 1083 l 97 1083 l 97 722 l 433 722 l 131 28 l 458 28 l 806 825 m 764 833 l 431 69 l 195 69 l 528 833 l 347 833 l 347 764 l 139 764 l 139 1042 l 764 1042 l 764 833 z "},"8":{"ha":861,"x_min":69,"x_max":791,"o":"m 791 193 l 599 0 l 262 0 l 69 193 l 69 473 l 151 555 l 83 624 l 83 932 l 262 1111 l 599 1111 l 778 932 l 778 624 l 710 555 l 791 473 l 791 193 m 764 205 l 764 461 l 669 555 l 750 636 l 750 920 l 586 1083 l 275 1083 l 111 920 l 111 636 l 192 555 l 97 461 l 97 205 l 275 28 l 586 28 l 764 205 m 722 222 l 570 69 l 292 69 l 139 222 l 139 444 l 250 555 l 153 653 l 153 903 l 292 1042 l 570 1042 l 708 903 l 708 653 l 611 555 l 722 444 l 722 222 m 500 660 l 500 833 l 361 833 l 361 660 l 500 660 m 500 278 l 500 452 l 361 452 l 361 278 l 500 278 z "},"9":{"ha":833,"x_min":69,"x_max":764,"o":"m 764 179 l 585 0 l 249 0 l 69 179 l 69 416 l 214 416 l 69 561 l 69 932 l 249 1111 l 585 1111 l 764 932 l 764 179 m 736 192 l 736 920 l 572 1083 l 261 1083 l 97 920 l 97 574 l 282 389 l 97 389 l 97 192 l 261 28 l 572 28 l 736 192 m 694 208 l 555 69 l 278 69 l 139 208 l 139 347 l 347 347 l 347 278 l 486 278 l 486 452 l 278 452 l 139 590 l 139 903 l 278 1042 l 555 1042 l 694 903 l 694 208 m 486 660 l 486 833 l 347 833 l 347 660 l 486 660 z "},">":{"ha":694,"x_min":0,"x_max":0,"o":""},"!":{"ha":486,"x_min":69,"x_max":416,"o":"m 416 0 l 69 0 l 69 347 l 97 347 l 69 761 l 69 1111 l 416 1111 l 416 761 l 389 347 l 416 347 l 416 0 m 389 28 l 389 319 l 359 319 l 389 762 l 389 1083 l 97 1083 l 97 762 l 126 319 l 97 319 l 97 28 l 389 28 m 347 764 l 319 347 l 167 347 l 139 764 l 139 1042 l 347 1042 l 347 764 m 347 69 l 139 69 l 139 278 l 347 278 l 347 69 z "},"\"":{"ha":750,"x_min":69,"x_max":681,"o":"m 681 804 l 403 526 l 403 764 l 376 764 l 139 526 l 139 764 l 69 764 l 69 1111 l 681 1111 l 681 804 m 653 817 l 653 1083 l 97 1083 l 97 791 l 167 791 l 167 595 l 364 791 l 431 791 l 431 595 l 653 817 m 611 833 l 472 694 l 472 833 l 403 833 l 403 1042 l 611 1042 l 611 833 m 347 833 l 208 694 l 208 833 l 139 833 l 139 1042 l 347 1042 l 347 833 z "},"#":{"ha":873,"x_min":69,"x_max":804,"o":"m 804 930 l 764 458 l 653 458 l 643 347 l 171 347 l 180 458 l 69 458 l 110 930 l 221 930 l 231 1042 l 703 1042 l 693 930 l 804 930 m 774 903 l 663 903 l 672 1014 l 256 1014 l 245 903 l 135 903 l 100 486 l 211 486 l 201 375 l 618 375 l 628 486 l 739 486 l 774 903 m 729 861 l 720 750 l 608 750 l 600 639 l 711 639 l 701 528 l 590 528 l 581 416 l 469 416 l 479 528 l 368 528 l 358 416 l 248 416 l 257 528 l 146 528 l 155 639 l 267 639 l 275 750 l 164 750 l 174 861 l 285 861 l 294 972 l 406 972 l 396 861 l 507 861 l 517 972 l 628 972 l 618 861 l 729 861 m 497 750 l 386 750 l 378 639 l 489 639 l 497 750 z "},"$":{"ha":778,"x_min":69,"x_max":708,"o":"m 708 214 l 562 68 l 562 0 l 215 0 l 215 68 l 69 214 l 69 437 l 189 437 l 69 557 l 69 897 l 215 1043 l 215 1111 l 562 1111 l 562 1043 l 708 897 l 708 673 l 587 673 l 708 553 l 708 214 m 681 227 l 681 541 l 519 701 l 681 701 l 681 885 l 534 1031 l 534 1083 l 243 1083 l 243 1031 l 97 885 l 97 570 l 257 410 l 97 410 l 97 227 l 243 81 l 243 28 l 534 28 l 534 81 l 681 227 m 639 243 l 514 118 l 493 118 l 493 69 l 285 69 l 285 118 l 264 118 l 139 243 l 139 368 l 326 368 l 326 306 l 452 306 l 452 461 l 264 461 l 139 586 l 139 868 l 264 993 l 285 993 l 285 1042 l 493 1042 l 493 993 l 514 993 l 639 868 l 639 743 l 452 743 l 452 806 l 326 806 l 326 648 l 514 648 l 639 524 l 639 243 z "},"%":{"ha":1565,"x_min":69,"x_max":1496,"o":"m 1496 165 l 1331 0 l 1022 0 l 873 149 l 843 0 l 500 61 l 574 406 l 543 375 l 235 375 l 69 541 l 69 946 l 235 1111 l 543 1111 l 692 962 l 722 1111 l 1065 1050 l 991 705 l 1022 736 l 1331 736 l 1496 571 l 1496 165 m 1468 178 l 1468 558 l 1318 708 l 1035 708 l 946 619 l 1032 1028 l 745 1079 l 681 778 l 681 933 l 530 1083 l 248 1083 l 97 933 l 97 553 l 248 403 l 530 403 l 619 492 l 533 83 l 821 32 l 885 332 l 885 178 l 1035 28 l 1318 28 l 1468 178 m 1440 189 l 1307 56 l 1046 56 l 913 189 l 913 547 l 1046 681 l 1307 681 l 1440 547 l 1440 189 m 999 1006 l 800 64 l 567 106 l 765 1047 l 999 1006 m 653 564 l 519 431 l 258 431 l 125 564 l 125 922 l 258 1055 l 519 1055 l 653 922 l 653 564 m 1225 271 l 1225 465 l 1128 465 l 1128 271 l 1225 271 m 437 646 l 437 840 l 340 840 l 340 646 l 437 646 z "},"&":{"ha":790,"x_min":69,"x_max":721,"o":"m 721 227 l 562 68 l 562 0 l 215 0 l 215 68 l 69 214 l 69 497 l 127 555 l 69 614 l 69 897 l 215 1043 l 215 1111 l 562 1111 l 562 1043 l 708 897 l 708 673 l 521 673 l 521 437 l 721 437 l 721 227 m 693 239 l 693 410 l 493 410 l 493 701 l 681 701 l 681 885 l 534 1031 l 534 1083 l 243 1083 l 243 1031 l 97 885 l 97 627 l 168 555 l 97 485 l 97 227 l 243 81 l 243 28 l 534 28 l 534 81 l 693 239 m 652 256 l 514 118 l 493 118 l 493 69 l 285 69 l 285 118 l 264 118 l 139 243 l 139 468 l 227 555 l 139 643 l 139 868 l 264 993 l 285 993 l 285 1042 l 493 1042 l 493 993 l 514 993 l 639 868 l 639 743 l 452 743 l 452 806 l 326 806 l 326 648 l 452 648 l 452 461 l 326 461 l 326 306 l 452 306 l 452 368 l 652 368 l 652 256 z "},"'":{"ha":486,"x_min":69,"x_max":416,"o":"m 416 804 l 139 526 l 139 764 l 69 764 l 69 1111 l 416 1111 l 416 804 m 389 817 l 389 1083 l 97 1083 l 97 791 l 167 791 l 167 595 l 389 817 m 347 833 l 208 694 l 208 833 l 139 833 l 139 1042 l 347 1042 l 347 833 z "},"(":{"ha":625,"x_min":69,"x_max":555,"o":"m 555 0 l 249 0 l 69 179 l 69 932 l 249 1111 l 555 1111 l 555 764 l 416 764 l 416 347 l 555 347 l 555 0 m 528 28 l 528 319 l 389 319 l 389 791 l 528 791 l 528 1083 l 261 1083 l 97 920 l 97 192 l 261 28 l 528 28 m 486 69 l 278 69 l 139 208 l 139 903 l 278 1042 l 486 1042 l 486 833 l 347 833 l 347 278 l 486 278 l 486 69 z "},")":{"ha":625,"x_min":69,"x_max":555,"o":"m 555 179 l 376 0 l 69 0 l 69 347 l 208 347 l 208 764 l 69 764 l 69 1111 l 376 1111 l 555 932 l 555 179 m 528 192 l 528 920 l 364 1083 l 97 1083 l 97 791 l 236 791 l 236 319 l 97 319 l 97 28 l 364 28 l 528 192 m 486 208 l 347 69 l 139 69 l 139 278 l 278 278 l 278 833 l 139 833 l 139 1042 l 347 1042 l 486 903 l 486 208 z "},"*":{"ha":778,"x_min":69,"x_max":708,"o":"m 708 590 q 667 492 708 534 q 570 452 627 452 q 524 460 547 452 q 475 378 512 409 q 389 347 438 347 q 302 378 340 347 q 254 460 266 409 q 208 452 231 452 q 110 492 151 452 q 69 590 69 534 q 118 694 69 652 q 69 799 69 736 q 110 896 69 855 q 208 937 151 937 q 254 929 231 937 q 302 1010 266 980 q 389 1042 340 1042 q 475 1010 438 1042 q 524 929 512 980 q 570 937 547 937 q 667 896 628 937 q 708 799 708 855 q 660 694 708 736 q 708 590 708 652 m 681 590 q 612 694 681 646 q 681 799 681 743 q 648 876 681 844 q 570 909 615 909 q 501 888 548 909 q 389 1014 489 1014 q 277 888 289 1014 q 208 909 230 909 q 130 876 163 909 q 97 799 97 844 q 165 694 97 743 q 97 590 97 646 q 130 512 97 545 q 208 479 163 479 q 277 501 230 479 q 389 375 289 375 q 501 501 489 375 q 570 479 548 479 q 648 512 615 479 q 681 590 681 545 m 639 590 q 629 555 639 573 q 570 521 609 521 q 534 530 552 521 l 407 673 q 397 668 402 670 l 458 486 q 453 459 458 472 q 438 437 448 447 q 415 422 428 427 q 389 416 403 416 q 362 422 374 416 q 340 437 349 427 q 325 459 330 447 q 319 486 319 472 l 380 668 q 371 673 376 670 l 243 530 q 208 521 226 521 q 149 555 169 521 q 139 590 139 573 q 174 650 139 630 l 361 689 l 361 700 l 174 739 q 139 799 139 758 q 149 833 139 816 q 208 868 169 868 q 243 859 226 868 l 371 715 q 380 721 376 719 l 319 903 q 325 929 319 917 q 340 952 330 942 q 362 967 349 962 q 389 972 374 972 q 415 967 403 972 q 438 952 428 962 q 453 929 448 942 q 458 903 458 917 l 397 721 q 407 715 402 719 l 534 859 q 570 868 552 868 q 629 833 609 868 q 639 799 639 816 q 604 739 639 758 l 415 700 q 416 695 416 696 q 416 694 416 694 l 416 689 l 604 650 q 639 590 639 630 z "},"+":{"ha":694,"x_min":69,"x_max":625,"o":"m 625 416 l 486 416 l 486 278 l 208 278 l 208 416 l 69 416 l 69 694 l 208 694 l 208 833 l 486 833 l 486 694 l 625 694 l 625 416 m 597 444 l 597 667 l 458 667 l 458 806 l 236 806 l 236 667 l 97 667 l 97 444 l 236 444 l 236 306 l 458 306 l 458 444 l 597 444 m 555 486 l 416 486 l 416 347 l 278 347 l 278 486 l 139 486 l 139 625 l 278 625 l 278 764 l 416 764 l 416 625 l 555 625 l 555 486 z "},",":{"ha":486,"x_min":69,"x_max":416,"o":"m 416 40 l 139 -237 l 139 0 l 69 0 l 69 347 l 416 347 l 416 40 m 389 53 l 389 319 l 97 319 l 97 28 l 167 28 l 167 -169 l 389 53 m 347 69 l 208 -68 l 208 69 l 139 69 l 139 278 l 347 278 l 347 69 z "},"-":{"ha":694,"x_min":69,"x_max":625,"o":"m 625 416 l 69 416 l 69 694 l 625 694 l 625 416 m 597 444 l 597 667 l 97 667 l 97 444 l 597 444 m 555 486 l 139 486 l 139 625 l 555 625 l 555 486 z "},".":{"ha":486,"x_min":69,"x_max":416,"o":"m 416 -68 l 69 -68 l 69 278 l 416 278 l 416 -68 m 389 -41 l 389 250 l 97 250 l 97 -41 l 389 -41 m 347 0 l 139 0 l 139 208 l 347 208 l 347 0 z "},"/":{"ha":559,"x_min":0,"x_max":559,"o":"m 559 1051 l 342 0 l 0 60 l 216 1111 l 559 1051 m 528 1028 l 240 1079 l 32 83 l 319 32 l 528 1028 m 479 994 l 286 81 l 81 117 l 273 1031 l 479 994 z "},":":{"ha":486,"x_min":69,"x_max":416,"o":"m 416 486 l 69 486 l 69 833 l 416 833 l 416 486 m 416 0 l 69 0 l 69 347 l 416 347 l 416 0 m 389 514 l 389 806 l 97 806 l 97 514 l 389 514 m 389 28 l 389 319 l 97 319 l 97 28 l 389 28 m 347 555 l 139 555 l 139 764 l 347 764 l 347 555 m 347 69 l 139 69 l 139 278 l 347 278 l 347 69 z "},";":{"ha":486,"x_min":69,"x_max":416,"o":"m 416 486 l 69 486 l 69 833 l 416 833 l 416 486 m 416 40 l 139 -237 l 139 0 l 69 0 l 69 347 l 416 347 l 416 40 m 389 514 l 389 806 l 97 806 l 97 514 l 389 514 m 389 53 l 389 319 l 97 319 l 97 28 l 167 28 l 167 -169 l 389 53 m 347 555 l 139 555 l 139 764 l 347 764 l 347 555 m 347 69 l 208 -68 l 208 69 l 139 69 l 139 278 l 347 278 l 347 69 z "},"=":{"ha":694,"x_min":69,"x_max":625,"o":"m 625 306 l 69 306 l 69 806 l 625 806 l 625 306 m 597 334 l 597 778 l 97 778 l 97 334 l 597 334 m 555 597 l 139 597 l 139 736 l 555 736 l 555 597 m 555 375 l 139 375 l 139 514 l 555 514 l 555 375 z "},"?":{"ha":833,"x_min":69,"x_max":764,"o":"m 764 561 l 585 382 l 416 382 l 416 0 l 69 0 l 69 550 l 214 694 l 69 694 l 69 932 l 249 1111 l 585 1111 l 764 932 l 764 561 m 736 574 l 736 920 l 572 1083 l 261 1083 l 97 920 l 97 722 l 282 722 l 97 538 l 97 28 l 389 28 l 389 410 l 572 410 l 736 574 m 694 590 l 555 452 l 347 452 l 347 347 l 139 347 l 139 521 l 278 660 l 486 660 l 486 833 l 347 833 l 347 764 l 139 764 l 139 903 l 278 1042 l 555 1042 l 694 903 l 694 590 m 347 69 l 139 69 l 139 278 l 347 278 l 347 69 z "},"A":{"ha":806,"x_min":0,"x_max":806,"o":"m 806 0 l 456 0 l 432 139 l 374 139 l 350 0 l 0 0 l 207 1111 l 600 1111 l 806 0 m 772 28 l 576 1083 l 229 1083 l 33 28 l 326 28 l 350 167 l 456 167 l 479 28 l 772 28 m 722 69 l 514 69 l 490 208 l 315 208 l 292 69 l 83 69 l 264 1042 l 542 1042 l 722 69 m 454 416 l 403 718 l 351 416 l 454 416 z "},"B":{"ha":847,"x_min":69,"x_max":778,"o":"m 778 193 l 585 0 l 69 0 l 69 1111 l 585 1111 l 764 932 l 764 624 l 696 555 l 778 473 l 778 193 m 750 205 l 750 461 l 656 555 l 736 636 l 736 920 l 572 1083 l 97 1083 l 97 28 l 572 28 l 750 205 m 708 222 l 555 69 l 139 69 l 139 1042 l 555 1042 l 694 903 l 694 653 l 597 555 l 708 444 l 708 222 m 486 660 l 486 833 l 347 833 l 347 660 l 486 660 m 486 278 l 486 452 l 347 452 l 347 278 l 486 278 z "},"C":{"ha":833,"x_min":69,"x_max":764,"o":"m 764 179 l 585 0 l 249 0 l 69 179 l 69 932 l 249 1111 l 585 1111 l 764 932 l 764 625 l 514 625 l 514 486 l 764 486 l 764 179 m 736 192 l 736 458 l 486 458 l 486 653 l 736 653 l 736 920 l 572 1083 l 261 1083 l 97 920 l 97 192 l 261 28 l 572 28 l 736 192 m 694 208 l 555 69 l 278 69 l 139 208 l 139 903 l 278 1042 l 555 1042 l 694 903 l 694 694 l 486 694 l 486 833 l 347 833 l 347 278 l 486 278 l 486 416 l 694 416 l 694 208 z "},"D":{"ha":833,"x_min":69,"x_max":764,"o":"m 764 179 l 585 0 l 69 0 l 69 1111 l 585 1111 l 764 932 l 764 179 m 736 192 l 736 920 l 572 1083 l 97 1083 l 97 28 l 572 28 l 736 192 m 694 208 l 555 69 l 139 69 l 139 1042 l 555 1042 l 694 903 l 694 208 m 486 278 l 486 833 l 347 833 l 347 278 l 486 278 z "},"E":{"ha":764,"x_min":69,"x_max":694,"o":"m 694 0 l 69 0 l 69 1111 l 694 1111 l 694 764 l 416 764 l 416 729 l 694 729 l 694 382 l 416 382 l 416 347 l 694 347 l 694 0 m 667 28 l 667 319 l 389 319 l 389 410 l 667 410 l 667 701 l 389 701 l 389 791 l 667 791 l 667 1083 l 97 1083 l 97 28 l 667 28 m 625 69 l 139 69 l 139 1042 l 625 1042 l 625 833 l 347 833 l 347 660 l 625 660 l 625 452 l 347 452 l 347 278 l 625 278 l 625 69 z "},"F":{"ha":729,"x_min":69,"x_max":694,"o":"m 694 382 l 416 382 l 416 0 l 69 0 l 69 1111 l 694 1111 l 694 764 l 416 764 l 416 729 l 694 729 l 694 382 m 667 410 l 667 701 l 389 701 l 389 791 l 667 791 l 667 1083 l 97 1083 l 97 28 l 389 28 l 389 410 l 667 410 m 625 452 l 347 452 l 347 69 l 139 69 l 139 1042 l 625 1042 l 625 833 l 347 833 l 347 660 l 625 660 l 625 452 z "},"G":{"ha":833,"x_min":69,"x_max":764,"o":"m 764 179 l 585 0 l 249 0 l 69 179 l 69 932 l 249 1111 l 585 1111 l 764 932 l 764 179 m 736 192 l 736 920 l 572 1083 l 261 1083 l 97 920 l 97 192 l 261 28 l 572 28 l 736 192 m 694 208 l 555 69 l 278 69 l 139 208 l 139 903 l 278 1042 l 555 1042 l 694 903 l 694 694 l 486 694 l 486 833 l 347 833 l 347 278 l 486 278 l 486 382 l 416 382 l 416 590 l 694 590 l 694 208 z "},"H":{"ha":833,"x_min":69,"x_max":764,"o":"m 764 0 l 69 0 l 69 1111 l 764 1111 l 764 0 m 736 28 l 736 1083 l 97 1083 l 97 28 l 736 28 m 694 69 l 486 69 l 486 452 l 347 452 l 347 69 l 139 69 l 139 1042 l 347 1042 l 347 660 l 486 660 l 486 1042 l 694 1042 l 694 69 z "},"I":{"ha":486,"x_min":69,"x_max":416,"o":"m 416 0 l 69 0 l 69 1111 l 416 1111 l 416 0 m 389 28 l 389 1083 l 97 1083 l 97 28 l 389 28 m 347 69 l 139 69 l 139 1042 l 347 1042 l 347 69 z "},"J":{"ha":799,"x_min":35,"x_max":729,"o":"m 729 179 l 550 0 l 214 0 l 35 179 l 35 486 l 382 486 l 382 1111 l 729 1111 l 729 179 m 701 192 l 701 1083 l 410 1083 l 410 458 l 62 458 l 62 192 l 227 28 l 538 28 l 701 192 m 660 208 l 521 69 l 243 69 l 104 208 l 104 416 l 313 416 l 313 278 l 452 278 l 452 1042 l 660 1042 l 660 208 z "},"K":{"ha":863,"x_min":69,"x_max":793,"o":"m 793 0 l 437 0 l 416 57 l 416 0 l 69 0 l 69 1111 l 416 1111 l 416 1054 l 437 1111 l 793 1111 l 595 555 l 793 0 m 754 28 l 566 555 l 754 1083 l 457 1083 l 389 893 l 389 1083 l 97 1083 l 97 28 l 389 28 l 389 218 l 457 28 l 754 28 m 694 69 l 486 69 l 347 458 l 347 69 l 139 69 l 139 1042 l 347 1042 l 347 653 l 486 1042 l 694 1042 l 521 555 l 694 69 z "},"L":{"ha":729,"x_min":69,"x_max":694,"o":"m 694 0 l 69 0 l 69 1111 l 416 1111 l 416 347 l 694 347 l 694 0 m 667 28 l 667 319 l 389 319 l 389 1083 l 97 1083 l 97 28 l 667 28 m 625 69 l 139 69 l 139 1042 l 347 1042 l 347 278 l 625 278 l 625 69 z "},"M":{"ha":972,"x_min":69,"x_max":903,"o":"m 903 0 l 555 0 l 555 56 l 486 -117 l 416 56 l 416 0 l 69 0 l 69 1111 l 395 1111 l 486 882 l 578 1111 l 903 1111 l 903 0 m 875 28 l 875 1083 l 597 1083 l 486 807 l 375 1083 l 97 1083 l 97 28 l 389 28 l 389 200 l 486 -42 l 583 200 l 583 28 l 875 28 m 833 69 l 625 69 l 625 416 l 486 69 l 347 416 l 347 69 l 139 69 l 139 1042 l 347 1042 l 486 694 l 625 1042 l 833 1042 l 833 69 z "},"N":{"ha":833,"x_min":69,"x_max":764,"o":"m 764 0 l 437 0 l 416 57 l 416 0 l 69 0 l 69 1111 l 396 1111 l 416 1054 l 416 1111 l 764 1111 l 764 0 m 736 28 l 736 1083 l 444 1083 l 444 893 l 376 1083 l 97 1083 l 97 28 l 389 28 l 389 218 l 457 28 l 736 28 m 694 69 l 486 69 l 347 458 l 347 69 l 139 69 l 139 1042 l 347 1042 l 486 653 l 486 1042 l 694 1042 l 694 69 z "},"O":{"ha":833,"x_min":69,"x_max":764,"o":"m 764 179 l 585 0 l 249 0 l 69 179 l 69 932 l 249 1111 l 585 1111 l 764 932 l 764 179 m 736 192 l 736 920 l 572 1083 l 261 1083 l 97 920 l 97 192 l 261 28 l 572 28 l 736 192 m 694 208 l 555 69 l 278 69 l 139 208 l 139 903 l 278 1042 l 555 1042 l 694 903 l 694 208 m 486 278 l 486 833 l 347 833 l 347 278 l 486 278 z "},"P":{"ha":799,"x_min":69,"x_max":764,"o":"m 764 561 l 585 382 l 416 382 l 416 0 l 69 0 l 69 1111 l 585 1111 l 764 932 l 764 561 m 736 574 l 736 920 l 572 1083 l 97 1083 l 97 28 l 389 28 l 389 410 l 572 410 l 736 574 m 694 590 l 555 452 l 347 452 l 347 69 l 139 69 l 139 1042 l 555 1042 l 694 903 l 694 590 m 486 660 l 486 833 l 347 833 l 347 660 l 486 660 z "},"Q":{"ha":854,"x_min":69,"x_max":819,"o":"m 819 0 l 249 0 l 69 179 l 69 932 l 249 1111 l 585 1111 l 764 932 l 764 278 l 819 278 l 819 0 m 791 28 l 791 250 l 736 250 l 736 920 l 572 1083 l 261 1083 l 97 920 l 97 192 l 261 28 l 791 28 m 750 69 l 278 69 l 139 208 l 139 903 l 278 1042 l 555 1042 l 694 903 l 694 278 l 625 208 l 750 208 l 750 69 m 486 278 l 486 833 l 347 833 l 347 278 l 486 278 z "},"R":{"ha":833,"x_min":69,"x_max":764,"o":"m 764 0 l 69 0 l 69 1111 l 585 1111 l 764 932 l 764 624 l 696 555 l 764 488 l 764 0 m 736 28 l 736 475 l 656 555 l 736 636 l 736 920 l 572 1083 l 97 1083 l 97 28 l 736 28 m 694 69 l 486 69 l 486 452 l 347 452 l 347 69 l 139 69 l 139 1042 l 555 1042 l 694 903 l 694 653 l 597 555 l 694 458 l 694 69 m 486 660 l 486 833 l 347 833 l 347 660 l 486 660 z "},"S":{"ha":833,"x_min":69,"x_max":764,"o":"m 764 179 l 585 0 l 249 0 l 69 179 l 69 416 l 214 416 l 69 561 l 69 932 l 249 1111 l 585 1111 l 764 932 l 764 694 l 619 694 l 764 550 l 764 179 m 736 192 l 736 538 l 551 722 l 736 722 l 736 920 l 572 1083 l 261 1083 l 97 920 l 97 574 l 282 389 l 97 389 l 97 192 l 261 28 l 572 28 l 736 192 m 694 208 l 555 69 l 278 69 l 139 208 l 139 347 l 347 347 l 347 278 l 486 278 l 486 452 l 278 452 l 139 590 l 139 903 l 278 1042 l 555 1042 l 694 903 l 694 764 l 486 764 l 486 833 l 347 833 l 347 660 l 555 660 l 694 521 l 694 208 z "},"T":{"ha":764,"x_min":0,"x_max":764,"o":"m 764 764 l 555 764 l 555 0 l 208 0 l 208 764 l 0 764 l 0 1111 l 764 1111 l 764 764 m 736 791 l 736 1083 l 28 1083 l 28 791 l 236 791 l 236 28 l 528 28 l 528 791 l 736 791 m 694 833 l 486 833 l 486 69 l 278 69 l 278 833 l 69 833 l 69 1042 l 694 1042 l 694 833 z "},"U":{"ha":833,"x_min":69,"x_max":764,"o":"m 764 179 l 585 0 l 249 0 l 69 179 l 69 1111 l 764 1111 l 764 179 m 736 192 l 736 1083 l 97 1083 l 97 192 l 261 28 l 572 28 l 736 192 m 694 208 l 555 69 l 278 69 l 139 208 l 139 1042 l 347 1042 l 347 278 l 486 278 l 486 1042 l 694 1042 l 694 208 z "},"V":{"ha":806,"x_min":0,"x_max":806,"o":"m 806 1111 l 600 0 l 207 0 l 0 1111 l 350 1111 l 403 804 l 456 1111 l 806 1111 m 772 1083 l 479 1083 l 403 640 l 326 1083 l 33 1083 l 229 28 l 576 28 l 772 1083 m 722 1042 l 542 69 l 264 69 l 83 1042 l 292 1042 l 403 393 l 514 1042 l 722 1042 z "},"W":{"ha":1083,"x_min":0,"x_max":1083,"o":"m 1083 1111 l 878 0 l 205 0 l 0 1111 l 349 1111 l 393 895 l 427 1111 l 657 1111 l 690 895 l 734 1111 l 1083 1111 m 1050 1083 l 758 1083 l 686 739 l 633 1083 l 450 1083 l 397 739 l 325 1083 l 33 1083 l 229 28 l 522 28 l 541 158 l 562 28 l 854 28 l 1050 1083 m 1000 1042 l 819 69 l 597 69 l 542 393 l 486 69 l 264 69 l 83 1042 l 292 1042 l 403 504 l 486 1042 l 597 1042 l 681 504 l 791 1042 l 1000 1042 z "},"X":{"ha":836,"x_min":0,"x_max":836,"o":"m 836 0 l 476 0 l 418 136 l 359 0 l 0 0 l 237 555 l 0 1111 l 359 1111 l 418 975 l 476 1111 l 836 1111 l 597 555 l 836 0 m 793 28 l 567 555 l 793 1083 l 494 1083 l 418 904 l 342 1083 l 41 1083 l 268 555 l 41 28 l 342 28 l 418 207 l 494 28 l 793 28 m 730 69 l 522 69 l 418 313 l 314 69 l 106 69 l 314 555 l 106 1042 l 314 1042 l 418 799 l 522 1042 l 730 1042 l 522 555 l 730 69 z "},"Y":{"ha":831,"x_min":0,"x_max":831,"o":"m 831 1111 l 589 514 l 589 0 l 241 0 l 241 514 l 0 1111 l 359 1111 l 415 964 l 472 1111 l 831 1111 m 790 1083 l 492 1083 l 415 888 l 340 1083 l 41 1083 l 269 519 l 269 28 l 561 28 l 561 519 l 790 1083 m 728 1042 l 519 528 l 519 69 l 311 69 l 311 528 l 103 1042 l 311 1042 l 415 771 l 519 1042 l 728 1042 z "},"Z":{"ha":833,"x_min":69,"x_max":764,"o":"m 764 0 l 69 0 l 69 296 l 326 764 l 69 764 l 69 1111 l 764 1111 l 764 815 l 507 347 l 764 347 l 764 0 m 736 28 l 736 319 l 460 319 l 736 822 l 736 1083 l 97 1083 l 97 791 l 374 791 l 97 289 l 97 28 l 736 28 m 694 69 l 139 69 l 139 278 l 444 833 l 139 833 l 139 1042 l 694 1042 l 694 833 l 389 278 l 694 278 l 694 69 z "},"[":{"ha":625,"x_min":69,"x_max":555,"o":"m 555 0 l 69 0 l 69 1111 l 555 1111 l 555 764 l 416 764 l 416 347 l 555 347 l 555 0 m 528 28 l 528 319 l 389 319 l 389 791 l 528 791 l 528 1083 l 97 1083 l 97 28 l 528 28 m 486 69 l 139 69 l 139 1042 l 486 1042 l 486 833 l 347 833 l 347 278 l 486 278 l 486 69 z "},"\\":{"ha":559,"x_min":0,"x_max":559,"o":"m 559 60 l 218 0 l 0 1051 l 343 1111 l 559 60 m 528 83 l 319 1079 l 32 1028 l 240 32 l 528 83 m 479 117 l 273 81 l 81 994 l 286 1031 l 479 117 z "},"]":{"ha":625,"x_min":69,"x_max":555,"o":"m 555 0 l 69 0 l 69 347 l 208 347 l 208 764 l 69 764 l 69 1111 l 555 1111 l 555 0 m 528 28 l 528 1083 l 97 1083 l 97 791 l 236 791 l 236 319 l 97 319 l 97 28 l 528 28 m 486 69 l 139 69 l 139 278 l 278 278 l 278 833 l 139 833 l 139 1042 l 486 1042 l 486 69 z "},"a":{"ha":742,"x_min":0,"x_max":742,"o":"m 742 0 l 412 0 l 392 125 l 351 125 l 329 0 l 0 0 l 189 1014 l 554 1014 l 742 0 m 708 28 l 530 986 l 211 986 l 33 28 l 306 28 l 328 153 l 415 153 l 436 28 l 708 28 m 659 69 l 471 69 l 450 195 l 292 195 l 271 69 l 83 69 l 245 945 l 496 945 l 659 69 m 416 382 l 371 653 l 325 382 l 416 382 z "},"b":{"ha":790,"x_min":69,"x_max":721,"o":"m 721 178 l 543 0 l 69 0 l 69 1014 l 543 1014 l 708 848 l 708 566 l 650 507 l 721 436 l 721 178 m 693 191 l 693 424 l 610 507 l 681 578 l 681 836 l 530 986 l 97 986 l 97 28 l 530 28 l 693 191 m 652 207 l 514 69 l 139 69 l 139 945 l 514 945 l 639 819 l 639 595 l 551 507 l 652 407 l 652 207 m 452 600 l 452 757 l 326 757 l 326 600 l 452 600 m 452 257 l 452 412 l 326 412 l 326 257 l 452 257 z "},"c":{"ha":778,"x_min":69,"x_max":708,"o":"m 708 165 l 543 0 l 235 0 l 69 165 l 69 848 l 235 1014 l 543 1014 l 708 848 l 708 562 l 479 562 l 479 452 l 708 452 l 708 165 m 681 178 l 681 424 l 452 424 l 452 590 l 681 590 l 681 836 l 530 986 l 248 986 l 97 836 l 97 178 l 248 28 l 530 28 l 681 178 m 639 195 l 514 69 l 264 69 l 139 195 l 139 819 l 264 945 l 514 945 l 639 819 l 639 632 l 452 632 l 452 757 l 326 757 l 326 257 l 452 257 l 452 382 l 639 382 l 639 195 z "},"d":{"ha":778,"x_min":69,"x_max":708,"o":"m 708 165 l 543 0 l 69 0 l 69 1014 l 543 1014 l 708 848 l 708 165 m 681 178 l 681 836 l 530 986 l 97 986 l 97 28 l 530 28 l 681 178 m 639 195 l 514 69 l 139 69 l 139 945 l 514 945 l 639 819 l 639 195 m 452 257 l 452 757 l 326 757 l 326 257 l 452 257 z "},"e":{"ha":715,"x_min":69,"x_max":646,"o":"m 646 0 l 69 0 l 69 1014 l 646 1014 l 646 688 l 396 688 l 396 669 l 646 669 l 646 343 l 396 343 l 396 326 l 646 326 l 646 0 m 618 28 l 618 298 l 368 298 l 368 371 l 618 371 l 618 642 l 368 642 l 368 715 l 618 715 l 618 986 l 97 986 l 97 28 l 618 28 m 576 69 l 139 69 l 139 945 l 576 945 l 576 757 l 326 757 l 326 600 l 576 600 l 576 412 l 326 412 l 326 257 l 576 257 l 576 69 z "},"f":{"ha":681,"x_min":69,"x_max":646,"o":"m 646 343 l 396 343 l 396 0 l 69 0 l 69 1014 l 646 1014 l 646 688 l 396 688 l 396 669 l 646 669 l 646 343 m 618 371 l 618 642 l 368 642 l 368 715 l 618 715 l 618 986 l 97 986 l 97 28 l 368 28 l 368 371 l 618 371 m 576 412 l 326 412 l 326 69 l 139 69 l 139 945 l 576 945 l 576 757 l 326 757 l 326 600 l 576 600 l 576 412 z "},"g":{"ha":778,"x_min":69,"x_max":708,"o":"m 708 165 l 543 0 l 235 0 l 69 165 l 69 848 l 235 1014 l 543 1014 l 708 848 l 708 165 m 681 178 l 681 836 l 530 986 l 248 986 l 97 836 l 97 178 l 248 28 l 530 28 l 681 178 m 639 195 l 514 69 l 264 69 l 139 195 l 139 819 l 264 945 l 514 945 l 639 819 l 639 632 l 452 632 l 452 757 l 326 757 l 326 257 l 452 257 l 452 350 l 389 350 l 389 538 l 639 538 l 639 195 z "},"h":{"ha":778,"x_min":69,"x_max":708,"o":"m 708 0 l 69 0 l 69 1014 l 708 1014 l 708 0 m 681 28 l 681 986 l 97 986 l 97 28 l 681 28 m 639 69 l 452 69 l 452 412 l 326 412 l 326 69 l 139 69 l 139 945 l 326 945 l 326 600 l 452 600 l 452 945 l 639 945 l 639 69 z "},"i":{"ha":465,"x_min":69,"x_max":396,"o":"m 396 0 l 69 0 l 69 1014 l 396 1014 l 396 0 m 368 28 l 368 986 l 97 986 l 97 28 l 368 28 m 326 69 l 139 69 l 139 945 l 326 945 l 326 69 z "},"j":{"ha":743,"x_min":35,"x_max":673,"o":"m 673 165 l 509 0 l 200 0 l 35 165 l 35 452 l 347 452 l 347 1014 l 673 1014 l 673 165 m 646 178 l 646 986 l 375 986 l 375 424 l 62 424 l 62 178 l 212 28 l 496 28 l 646 178 m 604 195 l 479 69 l 229 69 l 104 195 l 104 382 l 292 382 l 292 257 l 416 257 l 416 945 l 604 945 l 604 195 z "},"k":{"ha":807,"x_min":69,"x_max":737,"o":"m 737 0 l 69 0 l 69 1014 l 737 1014 l 557 507 l 737 0 m 699 28 l 526 507 l 699 986 l 422 986 l 368 835 l 368 986 l 97 986 l 97 28 l 368 28 l 368 179 l 422 28 l 699 28 m 639 69 l 452 69 l 326 419 l 326 69 l 139 69 l 139 945 l 326 945 l 326 595 l 452 945 l 639 945 l 482 507 l 639 69 z "},"l":{"ha":715,"x_min":69,"x_max":646,"o":"m 646 0 l 69 0 l 69 1014 l 396 1014 l 396 326 l 646 326 l 646 0 m 618 28 l 618 298 l 368 298 l 368 986 l 97 986 l 97 28 l 618 28 m 576 69 l 139 69 l 139 945 l 326 945 l 326 257 l 576 257 l 576 69 z "},"m":{"ha":903,"x_min":69,"x_max":833,"o":"m 833 0 l 507 0 l 507 21 l 452 -117 l 396 21 l 396 0 l 69 0 l 69 1014 l 374 1014 l 452 819 l 529 1014 l 833 1014 l 833 0 m 806 28 l 806 986 l 549 986 l 452 745 l 354 986 l 97 986 l 97 28 l 368 28 l 368 165 l 452 -42 l 534 165 l 534 28 l 806 28 m 764 69 l 576 69 l 576 382 l 452 69 l 326 382 l 326 69 l 139 69 l 139 945 l 326 945 l 452 632 l 576 945 l 764 945 l 764 69 z "},"n":{"ha":778,"x_min":69,"x_max":708,"o":"m 708 0 l 69 0 l 69 1014 l 708 1014 l 708 0 m 681 28 l 681 986 l 410 986 l 410 835 l 355 986 l 97 986 l 97 28 l 368 28 l 368 179 l 422 28 l 681 28 m 639 69 l 452 69 l 326 419 l 326 69 l 139 69 l 139 945 l 326 945 l 452 595 l 452 945 l 639 945 l 639 69 z "},"o":{"ha":778,"x_min":69,"x_max":708,"o":"m 708 165 l 543 0 l 235 0 l 69 165 l 69 848 l 235 1014 l 543 1014 l 708 848 l 708 165 m 681 178 l 681 836 l 530 986 l 248 986 l 97 836 l 97 178 l 248 28 l 530 28 l 681 178 m 639 195 l 514 69 l 264 69 l 139 195 l 139 819 l 264 945 l 514 945 l 639 819 l 639 195 m 452 257 l 452 757 l 326 757 l 326 257 l 452 257 z "},"p":{"ha":743,"x_min":69,"x_max":708,"o":"m 708 510 l 543 343 l 396 343 l 396 0 l 69 0 l 69 1014 l 543 1014 l 708 848 l 708 510 m 681 521 l 681 836 l 530 986 l 97 986 l 97 28 l 368 28 l 368 371 l 530 371 l 681 521 m 639 538 l 514 412 l 326 412 l 326 69 l 139 69 l 139 945 l 514 945 l 639 819 l 639 538 m 452 600 l 452 757 l 326 757 l 326 600 l 452 600 z "},"q":{"ha":793,"x_min":69,"x_max":758,"o":"m 758 0 l 235 0 l 69 165 l 69 848 l 235 1014 l 543 1014 l 708 848 l 708 264 l 758 264 l 758 0 m 730 28 l 730 236 l 681 236 l 681 836 l 530 986 l 248 986 l 97 836 l 97 178 l 248 28 l 730 28 m 689 69 l 264 69 l 139 195 l 139 819 l 264 945 l 514 945 l 639 819 l 639 257 l 576 195 l 689 195 l 689 69 m 452 257 l 452 757 l 326 757 l 326 257 l 452 257 z "},"r":{"ha":778,"x_min":69,"x_max":708,"o":"m 708 0 l 69 0 l 69 1014 l 543 1014 l 708 848 l 708 566 l 650 507 l 708 449 l 708 0 m 681 28 l 681 436 l 610 507 l 681 578 l 681 836 l 530 986 l 97 986 l 97 28 l 681 28 m 639 69 l 452 69 l 452 412 l 326 412 l 326 69 l 139 69 l 139 945 l 514 945 l 639 819 l 639 595 l 551 507 l 639 419 l 639 69 m 452 600 l 452 757 l 326 757 l 326 600 l 452 600 z "},"s":{"ha":778,"x_min":69,"x_max":708,"o":"m 708 168 l 543 3 l 235 3 l 69 168 l 69 392 l 191 392 l 69 513 l 69 851 l 235 1017 l 543 1017 l 708 851 l 708 628 l 587 628 l 708 507 l 708 168 m 681 180 l 681 496 l 521 656 l 681 656 l 681 839 l 530 989 l 248 989 l 97 839 l 97 524 l 257 364 l 97 364 l 97 180 l 248 31 l 530 31 l 681 180 m 631 195 l 505 69 l 256 69 l 131 195 l 131 319 l 318 319 l 318 257 l 443 257 l 443 412 l 256 412 l 131 538 l 131 819 l 256 945 l 505 945 l 631 819 l 631 694 l 443 694 l 443 757 l 318 757 l 318 600 l 505 600 l 631 475 l 631 195 z "},"t":{"ha":701,"x_min":0,"x_max":701,"o":"m 701 688 l 514 688 l 514 0 l 187 0 l 187 688 l 0 688 l 0 1014 l 701 1014 l 701 688 m 673 715 l 673 986 l 28 986 l 28 715 l 215 715 l 215 28 l 486 28 l 486 715 l 673 715 m 632 757 l 444 757 l 444 69 l 257 69 l 257 757 l 69 757 l 69 945 l 632 945 l 632 757 z "},"u":{"ha":778,"x_min":69,"x_max":708,"o":"m 708 165 l 543 0 l 235 0 l 69 165 l 69 1014 l 708 1014 l 708 165 m 681 178 l 681 986 l 97 986 l 97 178 l 248 28 l 530 28 l 681 178 m 639 195 l 514 69 l 264 69 l 139 195 l 139 945 l 326 945 l 326 257 l 452 257 l 452 945 l 639 945 l 639 195 z "},"v":{"ha":742,"x_min":0,"x_max":742,"o":"m 742 1014 l 554 0 l 187 0 l 0 1014 l 329 1014 l 371 772 l 412 1014 l 742 1014 m 708 986 l 436 986 l 371 607 l 306 986 l 33 986 l 211 28 l 530 28 l 708 986 m 659 945 l 496 69 l 245 69 l 83 945 l 271 945 l 371 361 l 471 945 l 659 945 z "},"w":{"ha":991,"x_min":0,"x_max":991,"o":"m 991 1014 l 804 0 l 187 0 l 0 1014 l 328 1014 l 361 851 l 386 1014 l 606 1014 l 631 851 l 664 1014 l 991 1014 m 958 986 l 688 986 l 627 694 l 582 986 l 410 986 l 366 694 l 304 986 l 33 986 l 211 28 l 481 28 l 496 114 l 511 28 l 781 28 l 958 986 m 908 945 l 746 69 l 546 69 l 496 361 l 446 69 l 245 69 l 83 945 l 271 945 l 371 461 l 446 945 l 546 945 l 621 461 l 721 945 l 908 945 z "},"x":{"ha":774,"x_min":0,"x_max":774,"o":"m 774 0 l 435 0 l 386 113 l 339 0 l 0 0 l 218 507 l 0 1014 l 339 1014 l 386 901 l 435 1014 l 774 1014 l 555 507 l 774 0 m 730 28 l 526 507 l 730 986 l 453 986 l 386 832 l 321 986 l 43 986 l 248 507 l 43 28 l 321 28 l 386 182 l 453 28 l 730 28 m 668 69 l 481 69 l 386 288 l 293 69 l 106 69 l 293 507 l 106 945 l 293 945 l 386 725 l 481 945 l 668 945 l 481 507 l 668 69 z "},"y":{"ha":768,"x_min":0,"x_max":768,"o":"m 768 1014 l 547 468 l 547 0 l 221 0 l 221 468 l 0 1014 l 338 1014 l 383 895 l 431 1014 l 768 1014 m 728 986 l 449 986 l 383 817 l 319 986 l 40 986 l 249 473 l 249 28 l 519 28 l 519 473 l 728 986 m 665 945 l 478 482 l 478 69 l 290 69 l 290 482 l 103 945 l 290 945 l 383 700 l 478 945 l 665 945 z "},"z":{"ha":778,"x_min":69,"x_max":708,"o":"m 708 0 l 69 0 l 69 275 l 296 688 l 69 688 l 69 1014 l 708 1014 l 708 739 l 482 326 l 708 326 l 708 0 m 681 28 l 681 298 l 435 298 l 681 746 l 681 986 l 97 986 l 97 715 l 343 715 l 97 268 l 97 28 l 681 28 m 639 69 l 139 69 l 139 257 l 414 757 l 139 757 l 139 945 l 639 945 l 639 757 l 364 257 l 639 257 l 639 69 z "},"{":{"ha":708,"x_min":69,"x_max":639,"o":"m 639 0 l 332 0 l 153 179 l 153 427 l 69 496 l 69 615 l 153 685 l 153 932 l 332 1111 l 639 1111 l 639 764 l 500 764 l 500 596 l 460 555 l 500 515 l 500 347 l 639 347 l 639 0 m 611 28 l 611 319 l 472 319 l 472 503 l 419 555 l 472 608 l 472 791 l 611 791 l 611 1083 l 345 1083 l 180 920 l 180 672 l 97 603 l 97 509 l 180 439 l 180 192 l 345 28 l 611 28 m 570 69 l 361 69 l 222 208 l 222 458 l 139 528 l 139 583 l 222 653 l 222 903 l 361 1042 l 570 1042 l 570 833 l 431 833 l 431 625 l 361 555 l 431 486 l 431 278 l 570 278 l 570 69 z "},"|":{"ha":486,"x_min":69,"x_max":416,"o":"m 416 0 l 69 0 l 69 1111 l 416 1111 l 416 0 m 389 28 l 389 1083 l 97 1083 l 97 28 l 389 28 m 347 69 l 139 69 l 139 1042 l 347 1042 l 347 69 z "},"}":{"ha":708,"x_min":69,"x_max":639,"o":"m 639 496 l 555 427 l 555 179 l 376 0 l 69 0 l 69 347 l 208 347 l 208 515 l 249 555 l 208 596 l 208 764 l 69 764 l 69 1111 l 376 1111 l 555 932 l 555 685 l 639 615 l 639 496 m 611 509 l 611 603 l 528 672 l 528 920 l 364 1083 l 97 1083 l 97 791 l 236 791 l 236 608 l 289 555 l 236 503 l 236 319 l 97 319 l 97 28 l 364 28 l 528 192 l 528 439 l 611 509 m 570 528 l 486 458 l 486 208 l 347 69 l 139 69 l 139 278 l 278 278 l 278 486 l 347 555 l 278 625 l 278 833 l 139 833 l 139 1042 l 347 1042 l 486 903 l 486 653 l 570 583 l 570 528 z "},"¡":{"ha":486,"x_min":69,"x_max":416,"o":"m 416 0 l 69 0 l 69 350 l 97 764 l 69 764 l 69 1111 l 416 1111 l 416 764 l 389 764 l 416 350 l 416 0 m 389 28 l 389 349 l 359 791 l 389 791 l 389 1083 l 97 1083 l 97 791 l 126 791 l 97 349 l 97 28 l 389 28 m 347 833 l 139 833 l 139 1042 l 347 1042 l 347 833 m 347 69 l 139 69 l 139 347 l 167 764 l 319 764 l 347 347 l 347 69 z "},"¢":{"ha":778,"x_min":69,"x_max":708,"o":"m 708 353 l 562 207 l 562 139 l 215 139 l 215 207 l 69 353 l 69 897 l 215 1043 l 215 1111 l 562 1111 l 562 1043 l 708 897 l 708 353 m 681 366 l 681 885 l 534 1031 l 534 1083 l 243 1083 l 243 1031 l 97 885 l 97 366 l 243 220 l 243 167 l 534 167 l 534 220 l 681 366 m 639 382 l 514 257 l 493 257 l 493 208 l 285 208 l 285 257 l 264 257 l 139 382 l 139 868 l 264 993 l 285 993 l 285 1042 l 493 1042 l 493 993 l 514 993 l 639 868 l 639 681 l 452 681 l 452 806 l 326 806 l 326 444 l 452 444 l 452 570 l 639 570 l 639 382 z "},"¿":{"ha":833,"x_min":69,"x_max":764,"o":"m 764 179 l 585 0 l 249 0 l 69 179 l 69 550 l 249 729 l 416 729 l 416 1111 l 764 1111 l 764 561 l 619 416 l 764 416 l 764 179 m 736 192 l 736 389 l 551 389 l 736 574 l 736 1083 l 444 1083 l 444 701 l 261 701 l 97 538 l 97 192 l 261 28 l 572 28 l 736 192 m 694 833 l 486 833 l 486 1042 l 694 1042 l 694 833 m 694 208 l 555 69 l 278 69 l 139 208 l 139 521 l 278 660 l 486 660 l 486 764 l 694 764 l 694 590 l 555 452 l 347 452 l 347 278 l 486 278 l 486 347 l 694 347 l 694 208 z "},"":{"ha":486,"x_min":69,"x_max":416,"o":"m 416 526 l 69 526 l 69 833 l 347 1111 l 347 873 l 416 873 l 416 526 m 389 554 l 389 846 l 319 846 l 319 1043 l 97 821 l 97 554 l 389 554 m 347 596 l 139 596 l 139 804 l 278 943 l 278 804 l 347 804 l 347 596 z "},"":{"ha":486,"x_min":69,"x_max":416,"o":"m 416 804 l 139 526 l 139 764 l 69 764 l 69 1111 l 416 1111 l 416 804 m 389 817 l 389 1083 l 97 1083 l 97 791 l 167 791 l 167 595 l 389 817 m 347 833 l 208 694 l 208 833 l 139 833 l 139 1042 l 347 1042 l 347 833 z "},"":{"ha":486,"x_min":69,"x_max":416,"o":"m 416 40 l 139 -237 l 139 0 l 69 0 l 69 347 l 416 347 l 416 40 m 389 53 l 389 319 l 97 319 l 97 28 l 167 28 l 167 -169 l 389 53 m 347 69 l 208 -68 l 208 69 l 139 69 l 139 278 l 347 278 l 347 69 z "},"":{"ha":750,"x_min":69,"x_max":681,"o":"m 681 526 l 69 526 l 69 833 l 347 1111 l 347 873 l 374 873 l 611 1111 l 611 873 l 681 873 l 681 526 m 653 554 l 653 846 l 583 846 l 583 1043 l 386 846 l 319 846 l 319 1043 l 97 821 l 97 554 l 653 554 m 611 596 l 403 596 l 403 804 l 542 943 l 542 804 l 611 804 l 611 596 m 347 596 l 139 596 l 139 804 l 278 943 l 278 804 l 347 804 l 347 596 z "},"":{"ha":750,"x_min":69,"x_max":681,"o":"m 681 804 l 403 526 l 403 764 l 376 764 l 139 526 l 139 764 l 69 764 l 69 1111 l 681 1111 l 681 804 m 653 817 l 653 1083 l 97 1083 l 97 791 l 167 791 l 167 595 l 364 791 l 431 791 l 431 595 l 653 817 m 611 833 l 472 694 l 472 833 l 403 833 l 403 1042 l 611 1042 l 611 833 m 347 833 l 208 694 l 208 833 l 139 833 l 139 1042 l 347 1042 l 347 833 z "},"":{"ha":750,"x_min":69,"x_max":681,"o":"m 681 40 l 403 -237 l 403 0 l 376 0 l 139 -237 l 139 0 l 69 0 l 69 347 l 681 347 l 681 40 m 653 53 l 653 319 l 97 319 l 97 28 l 167 28 l 167 -169 l 364 28 l 431 28 l 431 -169 l 653 53 m 611 69 l 472 -68 l 472 69 l 403 69 l 403 278 l 611 278 l 611 69 m 347 69 l 208 -68 l 208 69 l 139 69 l 139 278 l 347 278 l 347 69 z "}," ":{"ha":416,"x_min":0,"x_max":0,"o":""}}}
